<mxfile host="app.diagrams.net" modified="2024-05-22T01:45:23.182Z" agent="Mozilla/5.0 (Macintosh; Intel Mac OS X 10_15_7) AppleWebKit/537.36 (KHTML, like Gecko) Chrome/125.0.0.0 Safari/537.36" etag="1fnkVFUkfGzH7JHn86Ue" version="24.4.4" type="device">
  <diagram name="Page-1" id="5f0bae14-7c28-e335-631c-24af17079c00">
    <mxGraphModel dx="1819" dy="1822" grid="1" gridSize="10" guides="1" tooltips="1" connect="1" arrows="1" fold="1" page="1" pageScale="1" pageWidth="1100" pageHeight="850" background="none" math="0" shadow="0">
      <root>
        <mxCell id="0" />
        <mxCell id="1" parent="0" />
        <mxCell id="39150e848f15840c-1" value="Analisis y visualizacion de datos" style="verticalAlign=top;align=left;spacingTop=8;spacingLeft=2;spacingRight=12;shape=cube;size=10;direction=south;fontStyle=4;html=1;rounded=0;shadow=0;comic=0;labelBackgroundColor=none;strokeWidth=1;fontFamily=Verdana;fontSize=12" parent="1" vertex="1">
          <mxGeometry x="120" y="70" width="330" height="220" as="geometry" />
        </mxCell>
        <mxCell id="39150e848f15840c-2" value="Administrador de inventario" style="verticalAlign=top;align=left;spacingTop=8;spacingLeft=2;spacingRight=12;shape=cube;size=10;direction=south;fontStyle=4;html=1;rounded=0;shadow=0;comic=0;labelBackgroundColor=none;strokeWidth=1;fontFamily=Verdana;fontSize=12" parent="1" vertex="1">
          <mxGeometry x="530" y="70" width="450" height="240" as="geometry" />
        </mxCell>
        <mxCell id="39150e848f15840c-3" value="Api Gateway" style="verticalAlign=top;align=left;spacingTop=8;spacingLeft=2;spacingRight=12;shape=cube;size=10;direction=south;fontStyle=4;html=1;rounded=0;shadow=0;comic=0;labelBackgroundColor=none;strokeWidth=1;fontFamily=Verdana;fontSize=12" parent="1" vertex="1">
          <mxGeometry x="380" y="410" width="300" height="150" as="geometry" />
        </mxCell>
        <mxCell id="ZMf_710IHUfQvaZzRH9R-61" style="edgeStyle=orthogonalEdgeStyle;rounded=0;orthogonalLoop=1;jettySize=auto;html=1;entryX=0.55;entryY=0.95;entryDx=0;entryDy=0;entryPerimeter=0;" edge="1" parent="1" source="39150e848f15840c-5" target="ZMf_710IHUfQvaZzRH9R-60">
          <mxGeometry relative="1" as="geometry">
            <mxPoint x="360" y="60" as="targetPoint" />
          </mxGeometry>
        </mxCell>
        <mxCell id="39150e848f15840c-5" value="visualizacion&lt;div&gt;&amp;nbsp;de datos&lt;/div&gt;" style="shape=component;align=left;spacingLeft=36;rounded=0;shadow=0;comic=0;labelBackgroundColor=none;strokeWidth=1;fontFamily=Verdana;fontSize=12;html=1;" parent="1" vertex="1">
          <mxGeometry x="300" y="130" width="120" height="60" as="geometry" />
        </mxCell>
        <mxCell id="39150e848f15840c-6" value="" style="ellipse;whiteSpace=wrap;html=1;rounded=0;shadow=0;comic=0;labelBackgroundColor=none;strokeWidth=1;fontFamily=Verdana;fontSize=12;align=center;" parent="1" vertex="1">
          <mxGeometry x="360" y="230" width="20" height="20" as="geometry" />
        </mxCell>
        <mxCell id="39150e848f15840c-9" value="" style="ellipse;whiteSpace=wrap;html=1;rounded=0;shadow=0;comic=0;labelBackgroundColor=none;strokeWidth=1;fontFamily=Verdana;fontSize=12;align=center;" parent="1" vertex="1">
          <mxGeometry x="620" y="230" width="20" height="20" as="geometry" />
        </mxCell>
        <mxCell id="ZMf_710IHUfQvaZzRH9R-11" style="edgeStyle=orthogonalEdgeStyle;rounded=0;orthogonalLoop=1;jettySize=auto;html=1;entryX=0;entryY=0.3;entryDx=0;entryDy=0;" edge="1" parent="1" source="39150e848f15840c-10" target="ZMf_710IHUfQvaZzRH9R-8">
          <mxGeometry relative="1" as="geometry" />
        </mxCell>
        <mxCell id="39150e848f15840c-10" value="Autenticacion" style="shape=component;align=left;spacingLeft=36;rounded=0;shadow=0;comic=0;labelBackgroundColor=none;strokeWidth=1;fontFamily=Verdana;fontSize=12;html=1;" parent="1" vertex="1">
          <mxGeometry x="390" y="470" width="120" height="60" as="geometry" />
        </mxCell>
        <mxCell id="39150e848f15840c-11" style="edgeStyle=none;rounded=0;html=1;dashed=1;labelBackgroundColor=none;startArrow=none;startFill=0;startSize=8;endArrow=open;endFill=0;endSize=16;fontFamily=Verdana;fontSize=12;" parent="1" source="39150e848f15840c-10" target="39150e848f15840c-6" edge="1">
          <mxGeometry relative="1" as="geometry" />
        </mxCell>
        <mxCell id="39150e848f15840c-12" style="edgeStyle=none;rounded=0;html=1;dashed=1;labelBackgroundColor=none;startArrow=none;startFill=0;startSize=8;endArrow=open;endFill=0;endSize=16;fontFamily=Verdana;fontSize=12;exitX=0.75;exitY=0;exitDx=0;exitDy=0;" parent="1" source="39150e848f15840c-10" target="39150e848f15840c-9" edge="1">
          <mxGeometry relative="1" as="geometry" />
        </mxCell>
        <mxCell id="39150e848f15840c-13" style="edgeStyle=elbowEdgeStyle;rounded=0;html=1;labelBackgroundColor=none;startArrow=none;startFill=0;startSize=8;endArrow=none;endFill=0;endSize=16;fontFamily=Verdana;fontSize=12;entryX=0;entryY=0.7;entryDx=0;entryDy=0;" parent="1" source="39150e848f15840c-9" target="ZMf_710IHUfQvaZzRH9R-12" edge="1">
          <mxGeometry relative="1" as="geometry">
            <mxPoint x="630" y="210" as="targetPoint" />
          </mxGeometry>
        </mxCell>
        <mxCell id="39150e848f15840c-14" style="edgeStyle=elbowEdgeStyle;rounded=0;html=1;labelBackgroundColor=none;startArrow=none;startFill=0;startSize=8;endArrow=none;endFill=0;endSize=16;fontFamily=Verdana;fontSize=12;" parent="1" source="39150e848f15840c-6" target="39150e848f15840c-5" edge="1">
          <mxGeometry relative="1" as="geometry" />
        </mxCell>
        <mxCell id="39150e848f15840c-17" style="edgeStyle=orthogonalEdgeStyle;rounded=0;html=1;labelBackgroundColor=none;startArrow=none;startFill=0;startSize=8;endArrow=none;endFill=0;endSize=16;fontFamily=Verdana;fontSize=12;" parent="1" source="39150e848f15840c-3" target="39150e848f15840c-2" edge="1">
          <mxGeometry relative="1" as="geometry">
            <Array as="points">
              <mxPoint x="695" y="485" />
            </Array>
          </mxGeometry>
        </mxCell>
        <mxCell id="39150e848f15840c-18" style="edgeStyle=orthogonalEdgeStyle;rounded=0;html=1;labelBackgroundColor=none;startArrow=none;startFill=0;startSize=8;endArrow=none;endFill=0;endSize=16;fontFamily=Verdana;fontSize=12;" parent="1" source="39150e848f15840c-3" target="39150e848f15840c-1" edge="1">
          <mxGeometry relative="1" as="geometry">
            <Array as="points">
              <mxPoint x="285" y="485" />
            </Array>
          </mxGeometry>
        </mxCell>
        <mxCell id="ZMf_710IHUfQvaZzRH9R-2" value="sistemas de pago" style="verticalAlign=top;align=left;spacingTop=8;spacingLeft=2;spacingRight=12;shape=cube;size=10;direction=south;fontStyle=4;html=1;rounded=0;shadow=0;comic=0;labelBackgroundColor=none;strokeWidth=1;fontFamily=Verdana;fontSize=12" vertex="1" parent="1">
          <mxGeometry x="1250" y="-40" width="330" height="220" as="geometry" />
        </mxCell>
        <mxCell id="ZMf_710IHUfQvaZzRH9R-47" style="edgeStyle=orthogonalEdgeStyle;rounded=0;orthogonalLoop=1;jettySize=auto;html=1;entryX=0;entryY=0.5;entryDx=0;entryDy=0;" edge="1" parent="1" source="ZMf_710IHUfQvaZzRH9R-3" target="ZMf_710IHUfQvaZzRH9R-43">
          <mxGeometry relative="1" as="geometry">
            <Array as="points">
              <mxPoint x="1410" y="55" />
              <mxPoint x="1410" y="140" />
            </Array>
          </mxGeometry>
        </mxCell>
        <mxCell id="ZMf_710IHUfQvaZzRH9R-3" value="Creacion&lt;div&gt;&amp;nbsp;de pagos&lt;/div&gt;" style="shape=component;align=left;spacingLeft=36;rounded=0;shadow=0;comic=0;labelBackgroundColor=none;strokeWidth=1;fontFamily=Verdana;fontSize=12;html=1;" vertex="1" parent="1">
          <mxGeometry x="1280" y="25" width="120" height="60" as="geometry" />
        </mxCell>
        <mxCell id="ZMf_710IHUfQvaZzRH9R-5" value="" style="ellipse;whiteSpace=wrap;html=1;rounded=0;shadow=0;comic=0;labelBackgroundColor=none;strokeWidth=1;fontFamily=Verdana;fontSize=12;align=center;" vertex="1" parent="1">
          <mxGeometry x="1340" y="120" width="20" height="20" as="geometry" />
        </mxCell>
        <mxCell id="ZMf_710IHUfQvaZzRH9R-6" style="edgeStyle=elbowEdgeStyle;rounded=0;html=1;labelBackgroundColor=none;startArrow=none;startFill=0;startSize=8;endArrow=none;endFill=0;endSize=16;fontFamily=Verdana;fontSize=12;" edge="1" parent="1" source="ZMf_710IHUfQvaZzRH9R-5" target="ZMf_710IHUfQvaZzRH9R-3">
          <mxGeometry relative="1" as="geometry" />
        </mxCell>
        <mxCell id="ZMf_710IHUfQvaZzRH9R-8" value="Autorizacion" style="shape=component;align=left;spacingLeft=36;rounded=0;shadow=0;comic=0;labelBackgroundColor=none;strokeWidth=1;fontFamily=Verdana;fontSize=12;html=1;" vertex="1" parent="1">
          <mxGeometry x="540" y="470" width="120" height="60" as="geometry" />
        </mxCell>
        <mxCell id="ZMf_710IHUfQvaZzRH9R-23" style="edgeStyle=orthogonalEdgeStyle;rounded=0;orthogonalLoop=1;jettySize=auto;html=1;entryX=0;entryY=0.3;entryDx=0;entryDy=0;" edge="1" parent="1" source="ZMf_710IHUfQvaZzRH9R-12" target="ZMf_710IHUfQvaZzRH9R-22">
          <mxGeometry relative="1" as="geometry" />
        </mxCell>
        <mxCell id="ZMf_710IHUfQvaZzRH9R-63" style="edgeStyle=orthogonalEdgeStyle;rounded=0;orthogonalLoop=1;jettySize=auto;html=1;entryX=1;entryY=0.3;entryDx=0;entryDy=0;" edge="1" parent="1" source="ZMf_710IHUfQvaZzRH9R-12" target="ZMf_710IHUfQvaZzRH9R-62">
          <mxGeometry relative="1" as="geometry" />
        </mxCell>
        <mxCell id="ZMf_710IHUfQvaZzRH9R-12" value="administracion&lt;div&gt;&amp;nbsp;de stock&lt;/div&gt;" style="shape=component;align=left;spacingLeft=36;rounded=0;shadow=0;comic=0;labelBackgroundColor=none;strokeWidth=1;fontFamily=Verdana;fontSize=12;html=1;" vertex="1" parent="1">
          <mxGeometry x="690" y="110" width="160" height="60" as="geometry" />
        </mxCell>
        <mxCell id="ZMf_710IHUfQvaZzRH9R-14" value="Proveedores de envio de servicios" style="verticalAlign=top;align=left;spacingTop=8;spacingLeft=2;spacingRight=12;shape=cube;size=10;direction=south;fontStyle=4;html=1;rounded=0;shadow=0;comic=0;labelBackgroundColor=none;strokeWidth=1;fontFamily=Verdana;fontSize=12" vertex="1" parent="1">
          <mxGeometry x="1220" y="-290" width="330" height="220" as="geometry" />
        </mxCell>
        <mxCell id="ZMf_710IHUfQvaZzRH9R-46" style="edgeStyle=orthogonalEdgeStyle;rounded=0;orthogonalLoop=1;jettySize=auto;html=1;entryX=0.5;entryY=1;entryDx=0;entryDy=0;" edge="1" parent="1" source="ZMf_710IHUfQvaZzRH9R-16" target="ZMf_710IHUfQvaZzRH9R-42">
          <mxGeometry relative="1" as="geometry" />
        </mxCell>
        <mxCell id="ZMf_710IHUfQvaZzRH9R-55" value="" style="edgeStyle=orthogonalEdgeStyle;rounded=0;orthogonalLoop=1;jettySize=auto;html=1;" edge="1" parent="1" source="ZMf_710IHUfQvaZzRH9R-16" target="ZMf_710IHUfQvaZzRH9R-54">
          <mxGeometry relative="1" as="geometry" />
        </mxCell>
        <mxCell id="ZMf_710IHUfQvaZzRH9R-16" value="Servicio&amp;nbsp;&lt;div&gt;de despacho&lt;/div&gt;" style="shape=component;align=left;spacingLeft=36;rounded=0;shadow=0;comic=0;labelBackgroundColor=none;strokeWidth=1;fontFamily=Verdana;fontSize=12;html=1;" vertex="1" parent="1">
          <mxGeometry x="1240" y="-210" width="120" height="60" as="geometry" />
        </mxCell>
        <mxCell id="ZMf_710IHUfQvaZzRH9R-18" value="" style="ellipse;whiteSpace=wrap;html=1;rounded=0;shadow=0;comic=0;labelBackgroundColor=none;strokeWidth=1;fontFamily=Verdana;fontSize=12;align=center;" vertex="1" parent="1">
          <mxGeometry x="1310" y="-140" width="20" height="20" as="geometry" />
        </mxCell>
        <mxCell id="ZMf_710IHUfQvaZzRH9R-19" style="edgeStyle=elbowEdgeStyle;rounded=0;html=1;labelBackgroundColor=none;startArrow=none;startFill=0;startSize=8;endArrow=none;endFill=0;endSize=16;fontFamily=Verdana;fontSize=12;" edge="1" parent="1" source="ZMf_710IHUfQvaZzRH9R-18" target="ZMf_710IHUfQvaZzRH9R-16">
          <mxGeometry relative="1" as="geometry" />
        </mxCell>
        <mxCell id="ZMf_710IHUfQvaZzRH9R-26" style="edgeStyle=orthogonalEdgeStyle;rounded=0;orthogonalLoop=1;jettySize=auto;html=1;entryX=0;entryY=0.5;entryDx=0;entryDy=0;" edge="1" parent="1" source="ZMf_710IHUfQvaZzRH9R-22" target="ZMf_710IHUfQvaZzRH9R-25">
          <mxGeometry relative="1" as="geometry" />
        </mxCell>
        <mxCell id="ZMf_710IHUfQvaZzRH9R-22" value="notificacion&lt;div&gt;&amp;nbsp;de disponibilidad&lt;/div&gt;" style="shape=component;align=left;spacingLeft=36;rounded=0;shadow=0;comic=0;labelBackgroundColor=none;strokeWidth=1;fontFamily=Verdana;fontSize=12;html=1;" vertex="1" parent="1">
          <mxGeometry x="780" y="220" width="160" height="60" as="geometry" />
        </mxCell>
        <mxCell id="ZMf_710IHUfQvaZzRH9R-25" value="Notificacion por Rabbit MQ" style="rounded=0;whiteSpace=wrap;html=1;" vertex="1" parent="1">
          <mxGeometry x="1000" y="220" width="120" height="60" as="geometry" />
        </mxCell>
        <mxCell id="ZMf_710IHUfQvaZzRH9R-29" value="Orquestador de pedidos" style="verticalAlign=top;align=left;spacingTop=8;spacingLeft=2;spacingRight=12;shape=cube;size=10;direction=south;fontStyle=4;html=1;rounded=0;shadow=0;comic=0;labelBackgroundColor=none;strokeWidth=1;fontFamily=Verdana;fontSize=12" vertex="1" parent="1">
          <mxGeometry x="470" y="-250" width="370" height="240" as="geometry" />
        </mxCell>
        <mxCell id="ZMf_710IHUfQvaZzRH9R-30" style="edgeStyle=orthogonalEdgeStyle;rounded=0;orthogonalLoop=1;jettySize=auto;html=1;entryX=0;entryY=0.5;entryDx=0;entryDy=0;" edge="1" parent="1" source="ZMf_710IHUfQvaZzRH9R-31" target="ZMf_710IHUfQvaZzRH9R-18">
          <mxGeometry relative="1" as="geometry">
            <Array as="points">
              <mxPoint x="1310" y="-130" />
            </Array>
            <mxPoint x="730" y="-192" as="targetPoint" />
          </mxGeometry>
        </mxCell>
        <mxCell id="ZMf_710IHUfQvaZzRH9R-39" style="edgeStyle=orthogonalEdgeStyle;rounded=0;orthogonalLoop=1;jettySize=auto;html=1;entryX=0;entryY=0.5;entryDx=0;entryDy=0;" edge="1" parent="1" source="ZMf_710IHUfQvaZzRH9R-31" target="ZMf_710IHUfQvaZzRH9R-5">
          <mxGeometry relative="1" as="geometry">
            <Array as="points">
              <mxPoint x="1150" y="-140" />
              <mxPoint x="1150" y="130" />
            </Array>
          </mxGeometry>
        </mxCell>
        <mxCell id="ZMf_710IHUfQvaZzRH9R-45" style="edgeStyle=orthogonalEdgeStyle;rounded=0;orthogonalLoop=1;jettySize=auto;html=1;entryX=1;entryY=0.5;entryDx=0;entryDy=0;" edge="1" parent="1" source="ZMf_710IHUfQvaZzRH9R-31" target="ZMf_710IHUfQvaZzRH9R-41">
          <mxGeometry relative="1" as="geometry" />
        </mxCell>
        <mxCell id="ZMf_710IHUfQvaZzRH9R-31" value="procesador&lt;div&gt;&amp;nbsp;de pedidos&lt;/div&gt;" style="shape=component;align=left;spacingLeft=36;rounded=0;shadow=0;comic=0;labelBackgroundColor=none;strokeWidth=1;fontFamily=Verdana;fontSize=12;html=1;" vertex="1" parent="1">
          <mxGeometry x="590" y="-170" width="170" height="60" as="geometry" />
        </mxCell>
        <mxCell id="ZMf_710IHUfQvaZzRH9R-32" value="" style="ellipse;whiteSpace=wrap;html=1;rounded=0;shadow=0;comic=0;labelBackgroundColor=none;strokeWidth=1;fontFamily=Verdana;fontSize=12;align=center;" vertex="1" parent="1">
          <mxGeometry x="660" y="-90" width="20" height="20" as="geometry" />
        </mxCell>
        <mxCell id="ZMf_710IHUfQvaZzRH9R-33" style="edgeStyle=elbowEdgeStyle;rounded=0;html=1;labelBackgroundColor=none;startArrow=none;startFill=0;startSize=8;endArrow=none;endFill=0;endSize=16;fontFamily=Verdana;fontSize=12;" edge="1" parent="1" source="ZMf_710IHUfQvaZzRH9R-32" target="ZMf_710IHUfQvaZzRH9R-31">
          <mxGeometry relative="1" as="geometry" />
        </mxCell>
        <mxCell id="ZMf_710IHUfQvaZzRH9R-38" style="edgeStyle=none;rounded=0;html=1;dashed=1;labelBackgroundColor=none;startArrow=none;startFill=0;startSize=8;endArrow=open;endFill=0;endSize=16;fontFamily=Verdana;fontSize=12;exitX=0.5;exitY=0;exitDx=0;exitDy=0;entryX=0.5;entryY=1;entryDx=0;entryDy=0;" edge="1" parent="1" source="39150e848f15840c-10" target="ZMf_710IHUfQvaZzRH9R-32">
          <mxGeometry relative="1" as="geometry">
            <mxPoint x="490" y="480" as="sourcePoint" />
            <mxPoint x="635" y="258" as="targetPoint" />
            <Array as="points">
              <mxPoint x="480" y="200" />
              <mxPoint x="480" />
            </Array>
          </mxGeometry>
        </mxCell>
        <mxCell id="ZMf_710IHUfQvaZzRH9R-37" style="edgeStyle=orthogonalEdgeStyle;rounded=0;orthogonalLoop=1;jettySize=auto;html=1;entryX=0.5;entryY=1;entryDx=0;entryDy=0;" edge="1" parent="1" source="ZMf_710IHUfQvaZzRH9R-25" target="ZMf_710IHUfQvaZzRH9R-32">
          <mxGeometry relative="1" as="geometry">
            <Array as="points">
              <mxPoint x="1060" y="20" />
              <mxPoint x="670" y="20" />
            </Array>
          </mxGeometry>
        </mxCell>
        <mxCell id="ZMf_710IHUfQvaZzRH9R-44" style="edgeStyle=orthogonalEdgeStyle;rounded=0;orthogonalLoop=1;jettySize=auto;html=1;entryX=0.25;entryY=1;entryDx=0;entryDy=0;" edge="1" parent="1" source="ZMf_710IHUfQvaZzRH9R-40" target="39150e848f15840c-5">
          <mxGeometry relative="1" as="geometry" />
        </mxCell>
        <mxCell id="ZMf_710IHUfQvaZzRH9R-40" value="Only read&lt;div&gt;No-sql&lt;/div&gt;" style="shape=datastore;whiteSpace=wrap;html=1;" vertex="1" parent="1">
          <mxGeometry x="130" y="220" width="60" height="60" as="geometry" />
        </mxCell>
        <mxCell id="ZMf_710IHUfQvaZzRH9R-49" style="edgeStyle=orthogonalEdgeStyle;rounded=0;orthogonalLoop=1;jettySize=auto;html=1;entryX=0.5;entryY=1;entryDx=0;entryDy=0;" edge="1" parent="1" source="ZMf_710IHUfQvaZzRH9R-41" target="ZMf_710IHUfQvaZzRH9R-48">
          <mxGeometry relative="1" as="geometry" />
        </mxCell>
        <mxCell id="ZMf_710IHUfQvaZzRH9R-41" value="" style="shape=datastore;whiteSpace=wrap;html=1;" vertex="1" parent="1">
          <mxGeometry x="480" y="-210" width="60" height="60" as="geometry" />
        </mxCell>
        <mxCell id="ZMf_710IHUfQvaZzRH9R-50" style="edgeStyle=orthogonalEdgeStyle;rounded=0;orthogonalLoop=1;jettySize=auto;html=1;entryX=1;entryY=0.5;entryDx=0;entryDy=0;" edge="1" parent="1" source="ZMf_710IHUfQvaZzRH9R-42" target="ZMf_710IHUfQvaZzRH9R-48">
          <mxGeometry relative="1" as="geometry">
            <Array as="points">
              <mxPoint x="1480" y="-410" />
            </Array>
          </mxGeometry>
        </mxCell>
        <mxCell id="ZMf_710IHUfQvaZzRH9R-42" value="" style="shape=datastore;whiteSpace=wrap;html=1;" vertex="1" parent="1">
          <mxGeometry x="1450" y="-270" width="60" height="60" as="geometry" />
        </mxCell>
        <mxCell id="ZMf_710IHUfQvaZzRH9R-51" style="edgeStyle=orthogonalEdgeStyle;rounded=0;orthogonalLoop=1;jettySize=auto;html=1;entryX=1;entryY=0.5;entryDx=0;entryDy=0;" edge="1" parent="1" source="ZMf_710IHUfQvaZzRH9R-43" target="ZMf_710IHUfQvaZzRH9R-48">
          <mxGeometry relative="1" as="geometry">
            <Array as="points">
              <mxPoint x="1660" y="140" />
              <mxPoint x="1660" y="-410" />
            </Array>
          </mxGeometry>
        </mxCell>
        <mxCell id="ZMf_710IHUfQvaZzRH9R-43" value="" style="shape=datastore;whiteSpace=wrap;html=1;" vertex="1" parent="1">
          <mxGeometry x="1450" y="110" width="60" height="60" as="geometry" />
        </mxCell>
        <mxCell id="ZMf_710IHUfQvaZzRH9R-52" style="edgeStyle=orthogonalEdgeStyle;rounded=0;orthogonalLoop=1;jettySize=auto;html=1;entryX=0;entryY=0.5;entryDx=0;entryDy=0;" edge="1" parent="1" source="ZMf_710IHUfQvaZzRH9R-48" target="ZMf_710IHUfQvaZzRH9R-40">
          <mxGeometry relative="1" as="geometry">
            <Array as="points">
              <mxPoint x="20" y="-410" />
              <mxPoint x="20" y="250" />
            </Array>
          </mxGeometry>
        </mxCell>
        <mxCell id="ZMf_710IHUfQvaZzRH9R-48" value="replicacion de data" style="label;whiteSpace=wrap;html=1;image=img/clipart/Gear_128x128.png" vertex="1" parent="1">
          <mxGeometry x="600" y="-440" width="140" height="60" as="geometry" />
        </mxCell>
        <mxCell id="ZMf_710IHUfQvaZzRH9R-53" value="paypal, stripe, etc" style="ellipse;shape=cloud;whiteSpace=wrap;html=1;" vertex="1" parent="1">
          <mxGeometry x="1690" y="15" width="120" height="80" as="geometry" />
        </mxCell>
        <mxCell id="ZMf_710IHUfQvaZzRH9R-54" value="Fedex, UPS" style="ellipse;shape=cloud;whiteSpace=wrap;html=1;" vertex="1" parent="1">
          <mxGeometry x="1240" y="-390" width="120" height="80" as="geometry" />
        </mxCell>
        <mxCell id="ZMf_710IHUfQvaZzRH9R-56" style="edgeStyle=orthogonalEdgeStyle;rounded=0;orthogonalLoop=1;jettySize=auto;html=1;entryX=0.07;entryY=0.4;entryDx=0;entryDy=0;entryPerimeter=0;" edge="1" parent="1" source="ZMf_710IHUfQvaZzRH9R-3" target="ZMf_710IHUfQvaZzRH9R-53">
          <mxGeometry relative="1" as="geometry" />
        </mxCell>
        <mxCell id="ZMf_710IHUfQvaZzRH9R-57" value="http" style="text;html=1;align=center;verticalAlign=middle;resizable=0;points=[];autosize=1;strokeColor=none;fillColor=none;" vertex="1" parent="1">
          <mxGeometry x="950" y="-172" width="40" height="30" as="geometry" />
        </mxCell>
        <mxCell id="ZMf_710IHUfQvaZzRH9R-58" value="http" style="text;html=1;align=center;verticalAlign=middle;resizable=0;points=[];autosize=1;strokeColor=none;fillColor=none;" vertex="1" parent="1">
          <mxGeometry x="700" y="390" width="40" height="30" as="geometry" />
        </mxCell>
        <mxCell id="ZMf_710IHUfQvaZzRH9R-59" value="http" style="text;html=1;align=center;verticalAlign=middle;resizable=0;points=[];autosize=1;strokeColor=none;fillColor=none;" vertex="1" parent="1">
          <mxGeometry x="240" y="340" width="40" height="30" as="geometry" />
        </mxCell>
        <mxCell id="ZMf_710IHUfQvaZzRH9R-60" value="Tableau,&amp;nbsp;&lt;div&gt;Power BI&lt;/div&gt;" style="ellipse;shape=cloud;whiteSpace=wrap;html=1;" vertex="1" parent="1">
          <mxGeometry x="300" y="-20" width="120" height="80" as="geometry" />
        </mxCell>
        <mxCell id="ZMf_710IHUfQvaZzRH9R-64" style="edgeStyle=orthogonalEdgeStyle;rounded=0;orthogonalLoop=1;jettySize=auto;html=1;entryX=0;entryY=1;entryDx=0;entryDy=0;" edge="1" parent="1" source="ZMf_710IHUfQvaZzRH9R-62" target="ZMf_710IHUfQvaZzRH9R-48">
          <mxGeometry relative="1" as="geometry">
            <Array as="points">
              <mxPoint x="460" y="140" />
              <mxPoint x="460" y="-380" />
            </Array>
          </mxGeometry>
        </mxCell>
        <mxCell id="ZMf_710IHUfQvaZzRH9R-62" value="" style="shape=datastore;whiteSpace=wrap;html=1;" vertex="1" parent="1">
          <mxGeometry x="540" y="110" width="60" height="60" as="geometry" />
        </mxCell>
      </root>
    </mxGraphModel>
  </diagram>
</mxfile>
